<svg width="512" height="512" viewBox="0 0 512 512" fill="none" xmlns="http://www.w3.org/2000/svg">
<g clip-path="url(#clip0_179_872)">
<path d="M124.283 2.69041C126.027 3.11968 126.027 3.11968 127.806 3.55763C130.957 4.33665 134.105 5.12805 137.251 5.92613C140.561 6.76321 143.875 7.58596 147.188 8.41093C152.743 9.79654 158.295 11.1936 163.845 12.5976C170.249 14.2174 176.657 15.8185 183.068 17.4098C189.26 18.9474 195.449 20.4982 201.636 22.055C204.26 22.7148 206.884 23.3699 209.509 24.0212C213.174 24.9333 216.834 25.8606 220.494 26.792C221.576 27.0581 222.657 27.3243 223.772 27.5985C235.599 30.6471 235.599 30.6471 239.458 36.0354C239.795 36.7778 240.133 37.5202 240.481 38.2851C240.883 39.1631 241.286 40.0412 241.701 40.9458C244.026 46.4116 246.311 51.8873 248.504 57.407C249.322 59.4611 250.15 61.5108 250.979 63.5605C251.503 64.8721 252.028 66.184 252.551 67.4961C253.257 69.2623 253.257 69.2623 253.978 71.0642C255 74 255 74 255 77C255.66 77 256.32 77 257 77C257.104 76.3393 257.207 75.6787 257.314 74.998C258.184 71.1969 259.558 67.6497 260.985 64.0312C261.282 63.2733 261.58 62.5154 261.886 61.7345C262.516 60.1366 263.148 58.5398 263.782 56.9438C264.745 54.5128 265.689 52.0751 266.633 49.6367C267.249 48.0803 267.866 46.5243 268.485 44.9687C268.762 44.2446 269.039 43.5205 269.325 42.7745C271.618 37.1027 274.296 33.3212 279.967 30.5508C284.913 28.5122 290.074 27.2932 295.253 25.9973C296.366 25.714 297.479 25.4307 298.626 25.1388C302.295 24.2073 305.966 23.2847 309.637 22.3633C312.199 21.7175 314.761 21.0716 317.323 20.4256C322.691 19.0734 328.06 17.7273 333.43 16.3835C339.611 14.8365 345.789 13.2745 351.965 11.7056C357.29 10.3536 362.618 9.01262 367.948 7.67992C371.121 6.88627 374.293 6.08696 377.463 5.27897C381.005 4.37731 384.552 3.49383 388.101 2.61448C389.646 2.2148 389.646 2.2148 391.223 1.80703C399.132 -0.122425 408.563 -2.17542 416.101 1.80735C417.331 2.61862 418.542 3.45886 419.735 4.3242C420.404 4.77559 421.074 5.22698 421.764 5.69204C423.164 6.63814 424.556 7.59572 425.94 8.56437C427.921 9.94454 429.922 11.283 431.94 12.6079C436.062 15.3154 440.157 18.0621 444.25 20.8125C454.782 27.8808 465.346 34.8934 475.985 41.8008C479.001 43.7656 482.017 45.7312 485.033 47.6968C487.002 48.9765 488.974 50.2519 490.949 51.5231C493.723 53.3096 496.487 55.1103 499.25 56.914C500.492 57.7049 500.492 57.7049 501.758 58.5117C506.257 61.4702 509.877 63.893 512 69C512.688 78.4259 511.579 87.5284 509.981 96.7983C509.766 98.0976 509.552 99.3969 509.33 100.735C508.75 104.251 508.155 107.764 507.558 111.276C506.933 114.965 506.321 118.656 505.708 122.347C504.548 129.314 503.377 136.279 502.202 143.244C500.863 151.182 499.537 159.123 498.212 167.063C495.489 183.378 492.75 199.69 490 216C490.613 216.468 491.226 216.937 491.857 217.419C492.663 218.04 493.47 218.661 494.301 219.301C495.498 220.22 495.498 220.22 496.72 221.157C504.336 227.312 509.969 236.371 512 246C513.297 260.007 512.163 272.296 503.625 283.937C496.375 292.445 486.437 300.126 474.916 301.193C460.372 301.72 448.472 300.643 436.922 290.801C428.791 283.182 422.141 273.131 421.727 261.691C421.335 247.755 422.881 236.759 432.547 226C434.333 223.542 434.704 222.027 435 219C434.193 216.03 434.193 216.03 432.774 212.902C432.518 212.296 432.263 211.689 432 211.064C431.436 209.727 430.866 208.392 430.291 207.059C428.68 203.327 427.114 199.576 425.539 195.828C425.016 194.588 425.016 194.588 424.482 193.323C419.926 182.504 415.557 171.609 411.172 160.719C409.761 157.215 408.349 153.712 406.935 150.209C400.529 134.327 400.529 134.327 398 128C393.385 129.415 389.144 131.295 384.852 133.477C384.194 133.807 383.537 134.137 382.86 134.477C380.78 135.522 378.702 136.574 376.625 137.625C375.207 138.339 373.789 139.052 372.371 139.766C368.912 141.506 365.456 143.252 362 145C361.996 145.8 361.992 146.601 361.987 147.425C361.884 166.888 361.776 186.35 361.661 205.812C361.606 215.224 361.552 224.636 361.503 234.048C361.46 242.25 361.414 250.452 361.363 258.654C361.337 262.998 361.312 267.342 361.291 271.686C361.272 275.774 361.247 279.861 361.22 283.949C361.21 285.45 361.203 286.951 361.197 288.453C361.189 290.501 361.174 292.549 361.158 294.597C361.152 295.743 361.146 296.89 361.139 298.071C361.021 300.562 360.727 302.629 360 305C361.107 305.117 362.213 305.233 363.353 305.353C368.444 305.994 373.374 307.15 378.36 308.345C379.366 308.583 380.372 308.82 381.408 309.065C384.714 309.847 388.017 310.636 391.321 311.426C393.626 311.975 395.932 312.525 398.238 313.074C403.062 314.225 407.885 315.38 412.708 316.537C418.883 318.017 425.062 319.483 431.242 320.944C436.002 322.073 440.759 323.212 445.516 324.355C447.793 324.9 450.071 325.441 452.35 325.978C455.536 326.729 458.718 327.496 461.899 328.267C462.837 328.485 463.776 328.702 464.743 328.927C470.965 330.457 475.79 332.154 479.848 337.379C481.181 340.41 481.433 342.632 481.438 345.937C481.467 347.436 481.467 347.436 481.496 348.965C480.749 353.54 478.725 356.589 475.184 359.485C472.909 361.081 470.594 362.593 468.25 364.086C467.376 364.657 466.501 365.228 465.6 365.816C462.74 367.68 459.87 369.527 457 371.375C455.024 372.66 453.048 373.946 451.073 375.233C448.05 377.204 445.026 379.174 441.999 381.139C432.028 387.615 422.133 394.203 412.25 400.812C410.69 401.854 409.131 402.896 407.571 403.937C404.046 406.29 400.523 408.644 397 411C401.235 420.079 405.472 429.141 410.16 437.996C410.815 439.247 411.469 440.497 412.123 441.748C413.099 443.613 414.081 445.472 415.086 447.321C419.487 455.453 422.567 462.565 421 472C418.81 476.623 416.494 478.701 412 481C402.356 482.602 392.504 479.646 383.168 477.422C381.562 477.049 379.956 476.678 378.35 476.307C374.146 475.334 369.946 474.345 365.747 473.353C362.352 472.553 358.954 471.765 355.556 470.978C351.446 470.026 347.338 469.068 343.231 468.109C342.089 467.843 342.089 467.843 340.924 467.571C330.898 465.226 320.934 462.712 311 460C310.719 460.608 310.437 461.216 310.147 461.843C308.536 464.873 306.277 466.871 303.813 469.25C299.89 473.081 296.169 477.002 292.61 481.172C290.436 483.64 288.095 485.915 285.75 488.219C283.918 490.084 282.207 492.019 280.5 494C277.173 497.856 273.634 501.435 270 505C268.639 506.392 268.639 506.392 267.25 507.812C263.556 511.404 261.319 512.328 256.25 512.438C250.31 512.316 247.122 511.234 243 507C241.196 505.053 239.456 503.073 237.75 501.039C236.078 499.091 234.335 497.294 232.5 495.5C229.407 492.462 226.579 489.252 223.75 485.969C222.062 484.07 220.313 482.28 218.5 480.5C215.415 477.47 212.592 474.273 209.778 470.992C207.41 468.338 204.869 465.887 202.285 463.445C201 462 201 462 201 460C200.117 460.241 199.234 460.482 198.325 460.73C188.515 463.381 178.665 465.801 168.77 468.109C167.588 468.385 167.588 468.385 166.383 468.667C162.227 469.636 158.069 470.602 153.912 471.565C150.505 472.355 147.101 473.152 143.698 473.957C139.54 474.939 135.379 475.908 131.216 476.869C129.648 477.233 128.081 477.601 126.515 477.974C104.608 483.183 104.608 483.183 96.4377 479.312C93.2604 476.298 91.2946 473.666 90.5227 469.297C90.4146 461.124 92.4477 455.485 96.2502 448.328C97.0493 446.755 97.0493 446.755 97.8645 445.151C99.554 441.839 101.276 438.545 103 435.25C104.159 432.993 105.315 430.735 106.469 428.477C109.287 422.971 112.133 417.48 115 412C110.627 408.358 105.985 405.207 101.266 402.039C100.407 401.46 99.548 400.881 98.663 400.285C96.8179 399.042 94.9721 397.799 93.1257 396.558C90.2318 394.613 87.3404 392.663 84.4494 390.713C75.3048 384.55 66.1426 378.416 56.9221 372.367C55.3918 371.36 53.8615 370.353 52.3313 369.345C49.5009 367.482 46.6619 365.633 43.8176 363.791C42.5448 362.955 41.2723 362.119 40.0002 361.281C38.9071 360.57 37.814 359.859 36.6877 359.127C33.0391 356.239 31.2553 353.708 30.5666 349.098C30.5587 342.949 30.5537 338.687 35.0002 334C39.1047 331.081 43.3845 329.938 48.2209 328.811C49.0365 328.614 49.852 328.417 50.6923 328.213C53.3868 327.564 56.0841 326.926 58.7815 326.289C60.6748 325.835 62.5679 325.381 64.4608 324.925C69.4552 323.726 74.452 322.537 79.4494 321.351C84.4587 320.159 89.4657 318.958 94.4729 317.758C102.731 315.78 110.991 313.803 119.254 311.844C123.783 310.77 128.309 309.683 132.832 308.578C133.789 308.346 134.747 308.114 135.734 307.874C137.572 307.428 139.41 306.978 141.246 306.524C142.073 306.325 142.899 306.125 143.751 305.919C144.84 305.652 144.839 305.652 145.95 305.38C148 305 148 305 152 305C151.838 304.472 151.677 303.944 151.51 303.4C150.877 300.421 150.859 297.644 150.842 294.597C150.827 292.619 150.827 292.619 150.812 290.602C150.806 289.143 150.801 287.684 150.795 286.226C150.785 284.688 150.775 283.151 150.765 281.613C150.738 277.44 150.717 273.267 150.697 269.093C150.675 264.732 150.648 260.37 150.621 256.009C150.571 247.75 150.526 239.491 150.483 231.232C150.433 221.83 150.379 212.427 150.323 203.025C150.209 183.683 150.103 164.342 150 145C145.197 142.574 140.392 140.153 135.584 137.737C133.948 136.914 132.312 136.089 130.677 135.263C128.331 134.078 125.982 132.898 123.633 131.719C122.533 131.161 122.533 131.161 121.411 130.592C117.88 128.67 117.88 128.67 114 128C113.179 130.031 112.358 132.062 111.538 134.093C110.792 135.937 110.047 137.78 109.302 139.624C107.197 144.832 105.092 150.04 102.989 155.25C99.0776 164.935 95.1621 174.619 91.206 184.287C89.6327 188.131 88.0636 191.978 86.4946 195.824C85.7513 197.642 85.0058 199.46 84.2581 201.277C83.2161 203.808 82.1816 206.343 81.1487 208.879C80.8422 209.617 80.5358 210.356 80.2201 211.117C78.6241 215.058 77.3917 218.724 77.0002 223C77.9736 224.844 77.9736 224.844 79.6252 226.25C88.9695 236.051 90.6591 247.979 90.3752 260.93C89.7349 273.237 83.5904 282.901 74.8127 291.187C62.8494 300.921 49.8146 302.33 35.0002 301C23.6793 298.465 13.5224 291.657 7.00023 282C-0.171032 269.206 -2.37994 256.631 0.871319 242.109C4.25361 232.75 9.67847 225.477 17.4221 219.289C17.9429 218.864 18.4637 218.438 19.0002 218C19.8062 217.381 19.8062 217.381 20.6285 216.749C22.2422 215.057 22.2422 215.057 22.0258 212.608C21.8608 211.656 21.6958 210.704 21.5258 209.722C21.3448 208.628 21.1638 207.533 20.9773 206.405C20.7608 205.204 20.5443 204.002 20.3213 202.764C20.1071 201.499 19.893 200.234 19.6724 198.93C19.2058 196.173 18.7285 193.418 18.2431 190.665C17.4737 186.299 16.7292 181.93 15.9881 177.559C14.5424 169.054 13.0712 160.553 11.5975 152.053C9.73009 141.274 7.87494 130.492 6.04096 119.708C5.30364 115.377 4.55448 111.048 3.79553 106.721C3.43675 104.665 3.08336 102.609 2.7322 100.552C2.30691 98.0616 1.87351 95.5726 1.4297 93.0854C-1.87273 73.4644 -1.87273 73.4644 1.47093 65.4944C4.85266 62.1593 8.47217 59.6376 12.469 57.0898C13.3213 56.5328 14.1736 55.9758 15.0517 55.402C17.8609 53.5695 20.6804 51.7536 23.5002 49.9375C25.4616 48.662 27.4222 47.3853 29.3821 46.1074C33.4841 43.4339 37.5897 40.7659 41.6975 38.1011C47.9577 34.0343 54.1934 29.9311 60.4221 25.8164C61.4209 25.1566 62.4197 24.4969 63.4487 23.8171C65.4208 22.514 67.3928 21.2107 69.3647 19.9072C73.9551 16.8731 78.5471 13.8415 83.1408 10.8125C83.9224 10.296 84.704 9.77947 85.5092 9.24731C86.9758 8.28063 88.4479 7.32232 89.9261 6.37352C92.0065 5.03188 92.0065 5.03188 93.9054 3.52879C102.935 -3.0923 114.199 0.104832 124.283 2.69041ZM100.633 36.5898C99.5296 37.3213 99.5296 37.3213 98.4039 38.0676C95.972 39.6825 93.5488 41.31 91.1252 42.9375C89.4401 44.0594 87.7544 45.1804 86.0681 46.3005C82.5313 48.6507 78.9973 51.0052 75.4651 53.3623C67.392 58.7435 59.2799 64.0653 51.1701 69.3909C47.1041 72.0616 43.0405 74.736 38.9768 77.4101C36.6513 78.9401 34.3258 80.47 32.0002 82C33.9171 96.6104 36.0854 111.16 38.5041 125.695C38.8314 127.672 39.1587 129.649 39.4858 131.626C40.1634 135.715 40.8436 139.804 41.5254 143.892C42.3983 149.13 43.2623 154.368 44.1241 159.608C44.7931 163.666 45.468 167.724 46.1446 171.781C46.466 173.714 46.7853 175.648 47.1025 177.582C47.5435 180.267 47.9926 182.95 48.4438 185.633C48.5722 186.426 48.7005 187.219 48.8328 188.035C49.4499 191.655 50.0697 194.841 52.0002 198C54.1463 192.708 56.2921 187.417 58.4377 182.125C58.7685 181.309 59.0992 180.494 59.44 179.653C63.823 168.844 68.2028 158.033 72.5754 147.219C74.3996 142.708 76.2255 138.198 78.0556 133.689C81.0343 126.349 84.0087 119.009 86.8987 111.633C87.3075 110.6 87.7162 109.568 88.1374 108.504C88.8444 106.714 89.5419 104.921 90.2263 103.123C92.3078 97.8905 94.7385 93.6308 100 91C110.189 89.544 117.761 93.0409 126.559 97.6054C127.919 98.2903 129.28 98.9733 130.642 99.6546C133.475 101.078 136.301 102.518 139.12 103.97C142.722 105.825 146.338 107.649 149.96 109.464C152.764 110.87 155.562 112.287 158.358 113.708C159.69 114.384 161.022 115.058 162.356 115.73C164.22 116.672 166.077 117.627 167.932 118.587C168.986 119.126 170.04 119.666 171.126 120.222C174.807 122.499 178.037 125.074 180 129C180.119 130.664 180.177 132.332 180.206 134C180.226 135.056 180.246 136.111 180.267 137.199C180.291 138.868 180.291 138.868 180.317 140.57C180.335 141.591 180.354 142.611 180.373 143.662C180.442 147.483 180.502 151.304 180.563 155.125C180.779 167.933 180.779 167.933 181 181H263C261.196 175.587 259.405 170.305 257.348 165.004C257.096 164.354 256.844 163.704 256.584 163.034C255.746 160.876 254.905 158.719 254.063 156.562C253.767 155.804 253.472 155.045 253.168 154.264C246.678 137.604 240.034 121.007 233.37 104.416C232.973 103.423 232.577 102.431 232.169 101.408C231.36 99.4034 230.534 97.4057 229.691 95.4151C227.373 89.859 225.555 84.4556 224.141 78.5986C220.765 65.4657 220.765 65.4657 211.76 55.9004C202.84 51.6148 192.858 49.9618 183.197 48.1996C179.284 47.4618 175.401 46.5945 171.514 45.7344C166.148 44.5584 160.776 43.4264 155.388 42.3525C144.11 40.1007 132.983 37.3508 121.857 34.4496C120.616 34.1288 119.375 33.808 118.097 33.4775C117.011 33.1917 115.926 32.9059 114.808 32.6114C108.604 31.2603 105.588 33.2324 100.633 36.5898ZM395.743 32.9423C394.9 33.1513 394.058 33.3602 393.19 33.5754C392.274 33.8076 391.358 34.0398 390.414 34.279C389.443 34.5213 388.472 34.7635 387.471 35.0131C384.26 35.8154 381.05 36.6244 377.84 37.4336C375.611 37.9921 373.382 38.5502 371.153 39.1079C366.481 40.2778 361.809 41.4508 357.139 42.6262C351.145 44.1345 345.15 45.6378 339.155 47.1391C333.445 48.5689 327.736 50.0011 322.028 51.4336C320.934 51.7077 319.841 51.9819 318.715 52.2644C315.629 53.0388 312.543 53.8149 309.457 54.5915C308.539 54.8217 307.621 55.0519 306.675 55.289C305.835 55.5008 304.996 55.7125 304.13 55.9306C303.401 56.1141 302.672 56.2975 301.92 56.4865C300.262 56.9298 298.628 57.4574 297 58C295.618 60.4368 295.618 60.4368 294.441 63.5102C293.957 64.6888 293.474 65.8674 292.975 67.0817C292.457 68.3797 291.939 69.678 291.422 70.9765C290.886 72.3038 290.35 73.6308 289.814 74.9576C288.69 77.7439 287.575 80.5336 286.465 83.3257C285.046 86.8942 283.602 90.4521 282.15 94.0078C281.036 96.7485 279.936 99.4952 278.841 102.244C278.315 103.558 277.784 104.869 277.247 106.179C276.497 108.017 275.769 109.865 275.042 111.713C274.623 112.761 274.203 113.808 273.771 114.887C272.199 121.236 274.46 126.793 276.879 132.637C277.167 133.351 277.455 134.064 277.752 134.8C278.682 137.099 279.622 139.393 280.563 141.687C281.203 143.264 281.843 144.842 282.481 146.419C283.74 149.526 285.003 152.631 286.268 155.735C288.817 161.997 291.301 168.285 293.778 174.577C294.963 178.046 294.963 178.046 297 181C299.521 181.088 302.015 181.115 304.535 181.098C305.289 181.096 306.042 181.095 306.818 181.093C309.233 181.088 311.648 181.075 314.063 181.062C315.696 181.057 317.33 181.053 318.963 181.049C322.976 181.038 326.988 181.02 331 181C331.006 180.36 331.012 179.719 331.018 179.06C331.082 172.392 331.166 165.725 331.263 159.058C331.296 156.57 331.324 154.082 331.347 151.594C331.38 148.017 331.433 144.44 331.488 140.863C331.495 139.752 331.501 138.64 331.508 137.495C331.528 136.454 331.547 135.413 331.568 134.341C331.579 133.428 331.59 132.516 331.602 131.575C332.186 127.797 333.709 124.966 336.786 122.664C337.466 122.321 338.147 121.978 338.848 121.625C339.66 121.207 340.473 120.789 341.31 120.358C342.218 119.91 343.127 119.462 344.063 119C345.03 118.513 345.997 118.026 346.994 117.524C348.659 116.687 350.324 115.85 351.993 115.02C356.587 112.73 361.141 110.369 365.688 107.987C369.409 106.044 373.141 104.122 376.874 102.203C378.738 101.24 380.598 100.27 382.454 99.291C402.827 88.5693 402.827 88.5693 412 91C417.128 92.8949 418.605 96.5089 420.785 101.208C422.756 105.737 424.656 110.286 426.485 114.875C426.898 115.903 427.312 116.93 427.738 117.989C429.079 121.324 430.415 124.662 431.75 128C432.679 130.312 433.608 132.625 434.538 134.937C436.432 139.646 438.324 144.357 440.215 149.068C444.021 158.547 447.855 168.014 451.691 177.48C453.144 181.067 454.596 184.655 456.049 188.242C457.366 191.495 458.683 194.747 460 198C461.569 195.145 462.391 192.654 462.924 189.446C463.078 188.537 463.232 187.629 463.391 186.693C463.552 185.704 463.714 184.714 463.88 183.695C464.055 182.648 464.231 181.6 464.413 180.521C464.992 177.057 465.563 173.591 466.133 170.125C466.533 167.719 466.934 165.313 467.335 162.907C468.175 157.864 469.01 152.82 469.842 147.775C470.909 141.304 471.984 134.835 473.063 128.366C473.891 123.397 474.715 118.428 475.539 113.459C475.934 111.073 476.331 108.688 476.728 106.302C477.282 102.97 477.831 99.6374 478.38 96.3047C478.627 94.8208 478.627 94.8208 478.88 93.307C479.103 91.9444 479.103 91.9444 479.33 90.5542C479.46 89.7666 479.591 88.9791 479.725 88.1677C480.084 85.7028 480.084 85.7028 480 82C478.539 80.4547 478.539 80.4547 476.469 79.217C475.69 78.7038 474.912 78.1906 474.109 77.6618C473.248 77.1147 472.387 76.5676 471.5 76.0039C470.609 75.422 469.718 74.84 468.8 74.2405C465.875 72.3344 462.938 70.4483 460 68.5625C457.992 67.2607 455.985 65.9578 453.979 64.6535C449.928 62.0221 445.874 59.3975 441.817 56.7763C436.547 53.3646 431.313 49.9019 426.094 46.414C424.615 45.4288 423.136 44.4437 421.656 43.4587C419.591 42.0833 417.527 40.7058 415.469 39.3201C413.599 38.063 411.723 36.8174 409.844 35.5742C408.804 34.879 407.765 34.1838 406.694 33.4675C402.848 31.3722 399.811 31.9221 395.743 32.9423ZM181 211C175.922 281.16 175.922 281.16 204 340C211.51 347.344 220.525 351.74 230 356C230.79 356.362 231.581 356.724 232.395 357.098C249.887 363.963 270.251 361.253 287 354C306.519 345.176 319.421 329.634 327 310C336.81 280.389 331 235.196 331 211C281.5 211 181 211 181 211ZM32.1252 248.125C30.4354 252.443 30.3406 256.427 31.0002 261C33.1632 265.406 35.397 268.199 40.0002 270C45.0435 270.684 48.831 270.574 53.4377 268.312C56.7968 265.281 58.6938 263.259 59.3166 258.668C59.5824 252.95 58.9687 249.397 55.0002 245C51.1631 241.614 47.3662 241.487 42.4377 241.648C37.775 242.321 35.1483 244.699 32.1252 248.125ZM454.125 248.125C452.435 252.443 452.341 256.427 453 261C455.163 265.406 457.397 268.199 462 270C467.043 270.684 470.831 270.574 475.438 268.312C478.797 265.281 480.694 263.259 481.317 258.668C481.582 252.95 480.969 249.397 477 245C473.163 241.614 469.366 241.487 464.438 241.648C459.775 242.321 457.148 244.699 454.125 248.125ZM154.018 335.621C153.288 335.793 152.558 335.965 151.806 336.143C144.18 337.945 136.558 339.762 128.936 341.581C125.313 342.444 121.689 343.304 118.064 344.159C113.698 345.189 109.333 346.227 104.97 347.271C103.302 347.668 101.634 348.063 99.9651 348.455C97.6357 349.002 95.309 349.56 92.9826 350.121C92.2865 350.282 91.5904 350.443 90.8731 350.609C89.2322 351.01 87.6127 351.497 86.0002 352C85.6702 352.66 85.3402 353.32 85.0002 354C85.7671 354.505 85.7671 354.505 86.5495 355.02C91.9702 358.59 97.3903 362.16 102.81 365.731C104.821 367.056 106.832 368.38 108.843 369.705C109.812 370.342 110.78 370.98 111.778 371.637C112.744 372.273 113.71 372.909 114.705 373.564C117.606 375.477 120.504 377.394 123.402 379.311C127.039 381.715 130.69 384.095 134.357 386.455C135.187 386.995 136.017 387.534 136.872 388.09C138.413 389.092 139.96 390.086 141.513 391.07C146.271 394.18 149.297 396.768 150.557 402.56C150.909 412.354 147.011 419.37 142.5 427.75C141.775 429.139 141.053 430.53 140.332 431.922C138.58 435.295 136.799 438.651 135 442C138.637 443.277 141.176 442.72 144.879 441.828C146.065 441.548 147.25 441.268 148.472 440.979C149.751 440.667 151.03 440.356 152.348 440.035C153.683 439.719 155.019 439.403 156.355 439.089C162.016 437.755 167.673 436.397 173.328 435.036C176.793 434.204 180.26 433.383 183.729 432.569C185.674 432.109 187.615 431.635 189.556 431.16C206.796 427.112 206.796 427.112 214.063 430.375C220.609 436.225 226.65 442.469 232.356 449.137C234.543 451.615 236.893 453.904 239.25 456.219C241.697 458.709 243.945 461.356 246.223 464C249.011 467.138 251.992 470.074 255 473C258.912 471.406 261.372 468.861 264.313 465.875C264.798 465.383 265.284 464.891 265.784 464.384C269.122 460.975 272.294 457.455 275.391 453.828C277.565 451.359 279.906 449.083 282.254 446.781C284.076 444.923 285.755 442.985 287.438 441C297.478 429.346 297.478 429.346 303.1 428.793C311.172 428.642 318.464 430.187 326.278 432.098C327.62 432.415 328.962 432.731 330.305 433.046C333.805 433.87 337.303 434.707 340.8 435.548C346.419 436.9 352.04 438.241 357.666 439.564C359.622 440.028 361.575 440.503 363.529 440.979C364.714 441.259 365.9 441.539 367.121 441.828C368.683 442.205 368.683 442.205 370.277 442.589C372.935 442.99 374.492 442.881 377 442C376.319 440.731 376.319 440.731 375.623 439.436C373.921 436.251 372.252 433.049 370.592 429.842C369.873 428.464 369.145 427.091 368.409 425.723C363.946 417.415 359.883 409.737 362 400C364.248 394.308 369.346 391.757 374.285 388.59C375.68 387.678 375.68 387.678 377.103 386.747C380.083 384.8 383.072 382.869 386.063 380.937C388.017 379.666 389.971 378.393 391.924 377.119C394.813 375.235 397.703 373.353 400.595 371.475C409.448 365.725 418.234 359.879 427 354C426.67 353.34 426.34 352.68 426 352C423.68 351.257 421.414 350.639 419.05 350.073C418.323 349.892 417.596 349.712 416.847 349.525C414.434 348.929 412.018 348.344 409.602 347.762C407.929 347.354 406.256 346.946 404.583 346.538C401.072 345.684 397.56 344.837 394.046 343.994C389.537 342.911 385.033 341.804 380.531 340.691C377.077 339.841 373.619 339.006 370.16 338.177C368.497 337.775 366.836 337.368 365.177 336.955C362.858 336.38 360.535 335.827 358.21 335.28C357.176 335.016 357.176 335.016 356.122 334.747C354.006 334.222 354.006 334.222 351 334C348.145 335.964 346.756 338.916 345 341.875C330.823 364.356 310.293 379.181 285 387C283.905 387.34 282.809 387.681 281.68 388.031C254.982 394.721 226.357 389.944 202.625 376.562C197.435 373.391 192.649 369.917 188 366C186.799 365.018 186.799 365.018 185.574 364.016C176.209 356.034 169.07 346.442 163.059 335.73C162.709 335.159 162.36 334.588 162 334C159.359 334 156.591 335.01 154.018 335.621Z" fill="#469274"/>
<path d="M232 271C236.645 273.2 238.669 275.509 241 280C241.527 282.151 241.983 284.32 242.375 286.5C243.541 291.953 244.466 294.745 249 298C252.689 299.845 256.964 299.35 261 299C265.325 297.251 266.878 295.068 269 291C269.527 288.849 269.983 286.68 270.375 284.5C271.936 277.229 273.892 275.072 280 271C285.554 270.311 290.471 270.276 295.562 272.687C299.129 276.071 300.813 278.593 301.468 283.531C301.584 298.18 297.589 308.922 287.418 319.672C276.887 329.613 264.935 331.57 251.14 331.34C238.803 330.795 229.108 324.6 220.812 315.812C214.115 307.581 210.831 298.579 210.687 288.125C210.658 287.43 210.629 286.735 210.599 286.02C210.536 280.82 211.636 277.931 215 274C220.222 269.944 225.653 270.226 232 271Z" fill="#469274"/>
</g>
<defs>
<clipPath id="clip0_179_872">
<rect width="512" height="512" fill="white"/>
</clipPath>
</defs>
</svg>
