<svg width="766" height="766" viewBox="0 0 766 766" fill="none" xmlns="http://www.w3.org/2000/svg">
<circle cx="383" cy="383" r="383" fill="#161E21"/>
<g clip-path="url(#clip0_179_872)">
<path d="M251.283 129.69C253.027 130.12 253.027 130.12 254.806 130.558C257.957 131.337 261.105 132.128 264.251 132.926C267.561 133.763 270.875 134.586 274.188 135.411C279.743 136.797 285.295 138.194 290.845 139.598C297.249 141.217 303.657 142.818 310.068 144.41C316.26 145.947 322.449 147.498 328.636 149.055C331.26 149.715 333.884 150.37 336.509 151.021C340.174 151.933 343.834 152.861 347.494 153.792C348.576 154.058 349.657 154.324 350.772 154.598C362.599 157.647 362.599 157.647 366.458 163.035C366.795 163.778 367.133 164.52 367.481 165.285C367.883 166.163 368.286 167.041 368.701 167.946C371.026 173.412 373.311 178.887 375.504 184.407C376.322 186.461 377.15 188.511 377.979 190.561C378.503 191.872 379.028 193.184 379.551 194.496C380.257 196.262 380.257 196.262 380.978 198.064C382 201 382 201 382 204C382.66 204 383.32 204 384 204C384.104 203.339 384.207 202.679 384.314 201.998C385.184 198.197 386.558 194.65 387.985 191.031C388.282 190.273 388.58 189.515 388.886 188.734C389.516 187.137 390.148 185.54 390.782 183.944C391.745 181.513 392.689 179.075 393.633 176.637C394.249 175.08 394.866 173.524 395.485 171.969C395.762 171.245 396.039 170.521 396.325 169.775C398.618 164.103 401.296 160.321 406.967 157.551C411.913 155.512 417.074 154.293 422.253 152.997C423.366 152.714 424.479 152.431 425.626 152.139C429.295 151.207 432.966 150.285 436.637 149.363C439.199 148.717 441.761 148.072 444.323 147.426C449.691 146.073 455.06 144.727 460.43 143.384C466.611 141.836 472.789 140.274 478.965 138.706C484.29 137.354 489.618 136.013 494.948 134.68C498.121 133.886 501.293 133.087 504.463 132.279C508.005 131.377 511.552 130.494 515.101 129.614C516.646 129.215 516.646 129.215 518.223 128.807C526.132 126.878 535.563 124.825 543.101 128.807C544.331 129.619 545.542 130.459 546.735 131.324C547.404 131.776 548.074 132.227 548.764 132.692C550.164 133.638 551.556 134.596 552.94 135.564C554.921 136.945 556.922 138.283 558.94 139.608C563.062 142.315 567.157 145.062 571.25 147.812C581.782 154.881 592.346 161.893 602.985 168.801C606.001 170.766 609.017 172.731 612.033 174.697C614.002 175.976 615.974 177.252 617.949 178.523C620.723 180.31 623.487 182.11 626.25 183.914C627.492 184.705 627.492 184.705 628.758 185.512C633.257 188.47 636.877 190.893 639 196C639.688 205.426 638.579 214.528 636.981 223.798C636.766 225.098 636.552 226.397 636.33 227.735C635.75 231.251 635.155 234.764 634.558 238.276C633.933 241.965 633.321 245.656 632.708 249.347C631.548 256.314 630.377 263.279 629.202 270.244C627.863 278.182 626.537 286.123 625.212 294.063C622.489 310.378 619.75 326.69 617 343C617.613 343.468 618.226 343.937 618.857 344.419C619.663 345.04 620.47 345.661 621.301 346.301C622.498 347.22 622.498 347.22 623.72 348.157C631.336 354.312 636.969 363.371 639 373C640.297 387.007 639.163 399.296 630.625 410.937C623.375 419.445 613.437 427.126 601.916 428.193C587.372 428.72 575.472 427.643 563.922 417.801C555.791 410.182 549.141 400.131 548.727 388.691C548.335 374.755 549.881 363.759 559.547 353C561.333 350.542 561.704 349.027 562 346C561.193 343.03 561.193 343.03 559.774 339.902C559.518 339.296 559.263 338.689 559 338.064C558.436 336.727 557.866 335.392 557.291 334.059C555.68 330.327 554.114 326.576 552.539 322.828C552.016 321.588 552.016 321.588 551.482 320.323C546.926 309.504 542.557 298.609 538.172 287.719C536.761 284.215 535.349 280.712 533.935 277.209C527.529 261.327 527.529 261.327 525 255C520.385 256.415 516.144 258.295 511.852 260.477C511.194 260.807 510.537 261.137 509.86 261.477C507.78 262.522 505.702 263.574 503.625 264.625C502.207 265.339 500.789 266.052 499.371 266.766C495.912 268.506 492.456 270.252 489 272C488.996 272.8 488.992 273.601 488.987 274.425C488.884 293.888 488.776 313.35 488.661 332.812C488.606 342.224 488.552 351.636 488.503 361.048C488.46 369.25 488.414 377.452 488.363 385.654C488.337 389.998 488.312 394.342 488.291 398.686C488.272 402.774 488.247 406.861 488.22 410.949C488.21 412.45 488.203 413.951 488.197 415.453C488.189 417.501 488.174 419.549 488.158 421.597C488.152 422.743 488.146 423.89 488.139 425.071C488.021 427.562 487.727 429.629 487 432C488.107 432.117 489.213 432.233 490.353 432.353C495.444 432.994 500.374 434.15 505.36 435.345C506.366 435.583 507.372 435.82 508.408 436.065C511.714 436.847 515.017 437.636 518.321 438.426C520.626 438.975 522.932 439.525 525.238 440.074C530.062 441.225 534.885 442.38 539.708 443.537C545.883 445.017 552.062 446.483 558.242 447.944C563.002 449.073 567.759 450.212 572.516 451.355C574.793 451.9 577.071 452.441 579.35 452.978C582.536 453.729 585.718 454.496 588.899 455.267C589.837 455.485 590.776 455.702 591.743 455.927C597.965 457.457 602.79 459.154 606.848 464.379C608.181 467.41 608.433 469.632 608.438 472.937C608.467 474.436 608.467 474.436 608.496 475.965C607.749 480.54 605.725 483.589 602.184 486.485C599.909 488.081 597.594 489.593 595.25 491.086C594.376 491.657 593.501 492.228 592.6 492.816C589.74 494.68 586.87 496.527 584 498.375C582.024 499.66 580.048 500.946 578.073 502.233C575.05 504.204 572.026 506.174 568.999 508.139C559.028 514.615 549.133 521.203 539.25 527.812C537.69 528.854 536.131 529.896 534.571 530.937C531.046 533.29 527.523 535.644 524 538C528.235 547.079 532.472 556.141 537.16 564.996C537.815 566.247 538.469 567.497 539.123 568.748C540.099 570.613 541.081 572.472 542.086 574.321C546.487 582.453 549.567 589.565 548 599C545.81 603.623 543.494 605.701 539 608C529.356 609.602 519.504 606.646 510.168 604.422C508.562 604.049 506.956 603.678 505.35 603.307C501.146 602.334 496.946 601.345 492.747 600.353C489.352 599.553 485.954 598.765 482.556 597.978C478.446 597.026 474.338 596.068 470.231 595.109C469.089 594.843 469.089 594.843 467.924 594.571C457.898 592.226 447.934 589.712 438 587C437.719 587.608 437.437 588.216 437.147 588.843C435.536 591.873 433.277 593.871 430.813 596.25C426.89 600.081 423.169 604.002 419.61 608.172C417.436 610.64 415.095 612.915 412.75 615.219C410.918 617.084 409.207 619.019 407.5 621C404.173 624.856 400.634 628.435 397 632C395.639 633.392 395.639 633.392 394.25 634.812C390.556 638.404 388.319 639.328 383.25 639.438C377.31 639.316 374.122 638.234 370 634C368.196 632.053 366.456 630.073 364.75 628.039C363.078 626.091 361.335 624.294 359.5 622.5C356.407 619.462 353.579 616.252 350.75 612.969C349.062 611.07 347.313 609.28 345.5 607.5C342.415 604.47 339.592 601.273 336.778 597.992C334.41 595.338 331.869 592.887 329.285 590.445C328 589 328 589 328 587C327.117 587.241 326.234 587.482 325.325 587.73C315.515 590.381 305.665 592.801 295.77 595.109C294.588 595.385 294.588 595.385 293.383 595.667C289.227 596.636 285.069 597.602 280.912 598.565C277.505 599.355 274.101 600.152 270.698 600.957C266.54 601.939 262.379 602.908 258.216 603.869C256.648 604.233 255.081 604.601 253.515 604.974C231.608 610.183 231.608 610.183 223.438 606.312C220.26 603.298 218.295 600.666 217.523 596.297C217.415 588.124 219.448 582.485 223.25 575.328C224.049 573.755 224.049 573.755 224.864 572.151C226.554 568.839 228.276 565.545 230 562.25C231.159 559.993 232.315 557.735 233.469 555.477C236.287 549.971 239.133 544.48 242 539C237.627 535.358 232.985 532.207 228.266 529.039C227.407 528.46 226.548 527.881 225.663 527.285C223.818 526.042 221.972 524.799 220.126 523.558C217.232 521.613 214.34 519.663 211.449 517.713C202.305 511.55 193.143 505.416 183.922 499.367C182.392 498.36 180.861 497.353 179.331 496.345C176.501 494.482 173.662 492.633 170.818 490.791C169.545 489.955 168.272 489.119 167 488.281C165.907 487.57 164.814 486.859 163.688 486.127C160.039 483.239 158.255 480.708 157.567 476.098C157.559 469.949 157.554 465.687 162 461C166.105 458.081 170.384 456.938 175.221 455.811C176.036 455.614 176.852 455.417 177.692 455.213C180.387 454.564 183.084 453.926 185.781 453.289C187.675 452.835 189.568 452.381 191.461 451.925C196.455 450.726 201.452 449.537 206.449 448.351C211.459 447.159 216.466 445.958 221.473 444.758C229.731 442.78 237.991 440.803 246.254 438.844C250.783 437.77 255.309 436.683 259.832 435.578C260.789 435.346 261.747 435.114 262.734 434.874C264.572 434.428 266.41 433.978 268.246 433.524C269.073 433.325 269.899 433.125 270.751 432.919C271.84 432.652 271.839 432.652 272.95 432.38C275 432 275 432 279 432C278.838 431.472 278.677 430.944 278.51 430.4C277.877 427.421 277.859 424.644 277.842 421.597C277.827 419.619 277.827 419.619 277.812 417.602C277.806 416.143 277.801 414.684 277.795 413.226C277.785 411.688 277.775 410.151 277.765 408.613C277.738 404.44 277.717 400.267 277.697 396.093C277.675 391.732 277.648 387.37 277.621 383.009C277.571 374.75 277.526 366.491 277.483 358.232C277.433 348.83 277.379 339.427 277.323 330.025C277.209 310.683 277.103 291.342 277 272C272.197 269.574 267.392 267.153 262.584 264.737C260.948 263.914 259.312 263.089 257.677 262.263C255.331 261.078 252.982 259.898 250.633 258.719C249.533 258.161 249.533 258.161 248.411 257.592C244.88 255.67 244.88 255.67 241 255C240.179 257.031 239.358 259.062 238.538 261.093C237.792 262.937 237.047 264.78 236.302 266.624C234.197 271.832 232.092 277.04 229.989 282.25C226.078 291.935 222.162 301.619 218.206 311.287C216.633 315.131 215.064 318.978 213.495 322.824C212.751 324.642 212.006 326.46 211.258 328.277C210.216 330.808 209.182 333.343 208.149 335.879C207.842 336.617 207.536 337.356 207.22 338.117C205.624 342.058 204.392 345.724 204 350C204.974 351.844 204.974 351.844 206.625 353.25C215.969 363.051 217.659 374.979 217.375 387.93C216.735 400.237 210.59 409.901 201.813 418.187C189.849 427.921 176.815 429.33 162 428C150.679 425.465 140.522 418.657 134 409C126.829 396.206 124.62 383.631 127.871 369.109C131.254 359.75 136.678 352.477 144.422 346.289C144.943 345.864 145.464 345.438 146 345C146.806 344.381 146.806 344.381 147.629 343.749C149.242 342.057 149.242 342.057 149.026 339.608C148.861 338.656 148.696 337.704 148.526 336.722C148.345 335.628 148.164 334.533 147.977 333.405C147.761 332.204 147.544 331.002 147.321 329.764C147.107 328.499 146.893 327.234 146.672 325.93C146.206 323.173 145.729 320.418 145.243 317.665C144.474 313.299 143.729 308.93 142.988 304.559C141.542 296.054 140.071 287.553 138.597 279.053C136.73 268.274 134.875 257.492 133.041 246.708C132.304 242.377 131.554 238.048 130.796 233.721C130.437 231.665 130.083 229.609 129.732 227.552C129.307 225.062 128.874 222.573 128.43 220.085C125.127 200.464 125.127 200.464 128.471 192.494C131.853 189.159 135.472 186.638 139.469 184.09C140.321 183.533 141.174 182.976 142.052 182.402C144.861 180.569 147.68 178.754 150.5 176.937C152.462 175.662 154.422 174.385 156.382 173.107C160.484 170.434 164.59 167.766 168.697 165.101C174.958 161.034 181.193 156.931 187.422 152.816C188.421 152.157 189.42 151.497 190.449 150.817C192.421 149.514 194.393 148.211 196.365 146.907C200.955 143.873 205.547 140.841 210.141 137.812C210.922 137.296 211.704 136.779 212.509 136.247C213.976 135.281 215.448 134.322 216.926 133.374C219.007 132.032 219.007 132.032 220.905 130.529C229.935 123.908 241.199 127.105 251.283 129.69ZM227.633 163.59C226.53 164.321 226.53 164.321 225.404 165.068C222.972 166.683 220.549 168.31 218.125 169.937C216.44 171.059 214.754 172.18 213.068 173.301C209.531 175.651 205.997 178.005 202.465 180.362C194.392 185.743 186.28 191.065 178.17 196.391C174.104 199.062 170.041 201.736 165.977 204.41C163.651 205.94 161.326 207.47 159 209C160.917 223.61 163.085 238.16 165.504 252.695C165.831 254.672 166.159 256.649 166.486 258.626C167.163 262.715 167.844 266.804 168.525 270.892C169.398 276.13 170.262 281.368 171.124 286.608C171.793 290.666 172.468 294.724 173.145 298.781C173.466 300.714 173.785 302.648 174.103 304.582C174.543 307.267 174.993 309.95 175.444 312.633C175.572 313.426 175.701 314.219 175.833 315.035C176.45 318.655 177.07 321.841 179 325C181.146 319.708 183.292 314.417 185.438 309.125C185.768 308.309 186.099 307.494 186.44 306.653C190.823 295.844 195.203 285.033 199.575 274.219C201.4 269.708 203.226 265.198 205.056 260.689C208.034 253.349 211.009 246.009 213.899 238.633C214.307 237.6 214.716 236.568 215.137 235.504C215.844 233.714 216.542 231.921 217.226 230.123C219.308 224.891 221.739 220.631 227 218C237.189 216.544 244.761 220.041 253.559 224.605C254.919 225.29 256.28 225.973 257.642 226.655C260.475 228.078 263.301 229.518 266.12 230.97C269.722 232.825 273.338 234.649 276.96 236.464C279.764 237.87 282.562 239.287 285.358 240.708C286.69 241.384 288.022 242.058 289.356 242.73C291.22 243.672 293.077 244.627 294.932 245.587C295.986 246.126 297.04 246.666 298.126 247.222C301.807 249.499 305.037 252.074 307 256C307.119 257.664 307.177 259.332 307.206 261C307.226 262.056 307.246 263.111 307.267 264.199C307.291 265.868 307.291 265.868 307.317 267.57C307.335 268.591 307.354 269.611 307.373 270.662C307.442 274.483 307.502 278.304 307.563 282.125C307.779 294.933 307.779 294.933 308 308H390C388.196 302.587 386.405 297.305 384.348 292.004C384.096 291.354 383.844 290.704 383.584 290.034C382.746 287.876 381.905 285.719 381.063 283.562C380.767 282.804 380.472 282.045 380.168 281.264C373.678 264.604 367.034 248.007 360.37 231.416C359.973 230.423 359.577 229.431 359.169 228.408C358.36 226.403 357.534 224.406 356.691 222.415C354.373 216.859 352.555 211.456 351.141 205.599C347.765 192.466 347.765 192.466 338.76 182.9C329.84 178.615 319.858 176.962 310.197 175.2C306.284 174.462 302.401 173.595 298.514 172.734C293.148 171.558 287.776 170.426 282.388 169.352C271.11 167.101 259.983 164.351 248.857 161.45C247.616 161.129 246.375 160.808 245.097 160.478C244.011 160.192 242.926 159.906 241.808 159.611C235.604 158.26 232.588 160.232 227.633 163.59ZM522.743 159.942C521.9 160.151 521.058 160.36 520.19 160.575C519.274 160.808 518.358 161.04 517.414 161.279C516.443 161.521 515.472 161.763 514.471 162.013C511.26 162.815 508.05 163.624 504.84 164.434C502.611 164.992 500.382 165.55 498.153 166.108C493.481 167.278 488.809 168.451 484.139 169.626C478.145 171.135 472.15 172.638 466.155 174.139C460.445 175.569 454.736 177.001 449.028 178.434C447.934 178.708 446.841 178.982 445.715 179.264C442.629 180.039 439.543 180.815 436.457 181.592C435.539 181.822 434.621 182.052 433.675 182.289C432.835 182.501 431.996 182.712 431.13 182.931C430.401 183.114 429.672 183.298 428.92 183.486C427.262 183.93 425.628 184.457 424 185C422.618 187.437 422.618 187.437 421.441 190.51C420.957 191.689 420.474 192.867 419.975 194.082C419.457 195.38 418.939 196.678 418.422 197.977C417.886 199.304 417.35 200.631 416.814 201.958C415.69 204.744 414.575 207.534 413.465 210.326C412.046 213.894 410.602 217.452 409.15 221.008C408.036 223.749 406.936 226.495 405.841 229.244C405.315 230.558 404.784 231.869 404.247 233.179C403.497 235.017 402.769 236.865 402.042 238.713C401.623 239.761 401.203 240.808 400.771 241.887C399.199 248.236 401.46 253.793 403.879 259.637C404.167 260.351 404.455 261.064 404.752 261.8C405.682 264.099 406.622 266.393 407.563 268.687C408.203 270.264 408.843 271.842 409.481 273.419C410.74 276.526 412.003 279.631 413.268 282.735C415.817 288.997 418.301 295.285 420.778 301.577C421.963 305.046 421.963 305.046 424 308C426.521 308.088 429.015 308.115 431.535 308.098C432.289 308.096 433.042 308.095 433.818 308.093C436.233 308.088 438.648 308.075 441.063 308.062C442.696 308.057 444.33 308.053 445.963 308.049C449.976 308.038 453.988 308.02 458 308C458.006 307.36 458.012 306.719 458.018 306.06C458.082 299.392 458.166 292.725 458.263 286.058C458.296 283.57 458.324 281.082 458.347 278.594C458.38 275.017 458.433 271.44 458.488 267.863C458.495 266.752 458.501 265.64 458.508 264.495C458.528 263.454 458.547 262.413 458.568 261.341C458.579 260.428 458.59 259.516 458.602 258.575C459.186 254.797 460.709 251.966 463.786 249.664C464.466 249.321 465.147 248.978 465.848 248.625C466.66 248.207 467.473 247.789 468.31 247.358C469.218 246.91 470.127 246.462 471.063 246C472.03 245.513 472.997 245.026 473.994 244.524C475.659 243.687 477.324 242.85 478.993 242.02C483.587 239.73 488.141 237.369 492.688 234.987C496.409 233.044 500.141 231.122 503.874 229.203C505.738 228.24 507.598 227.27 509.454 226.291C529.827 215.569 529.827 215.569 539 218C544.128 219.895 545.605 223.509 547.785 228.208C549.756 232.737 551.656 237.286 553.485 241.875C553.898 242.903 554.312 243.93 554.738 244.989C556.079 248.324 557.415 251.662 558.75 255C559.679 257.312 560.608 259.625 561.538 261.937C563.432 266.646 565.324 271.357 567.215 276.068C571.021 285.547 574.855 295.014 578.691 304.48C580.144 308.067 581.596 311.655 583.049 315.242C584.366 318.495 585.683 321.747 587 325C588.569 322.145 589.391 319.654 589.924 316.446C590.078 315.537 590.232 314.629 590.391 313.693C590.552 312.704 590.714 311.714 590.88 310.695C591.055 309.648 591.231 308.6 591.413 307.521C591.992 304.057 592.563 300.591 593.133 297.125C593.533 294.719 593.934 292.313 594.335 289.907C595.175 284.864 596.01 279.82 596.842 274.775C597.909 268.304 598.984 261.835 600.063 255.366C600.891 250.397 601.715 245.428 602.539 240.459C602.934 238.073 603.331 235.688 603.728 233.302C604.282 229.97 604.831 226.637 605.38 223.305C605.627 221.821 605.627 221.821 605.88 220.307C606.103 218.944 606.103 218.944 606.33 217.554C606.46 216.767 606.591 215.979 606.725 215.168C607.084 212.703 607.084 212.703 607 209C605.539 207.455 605.539 207.455 603.469 206.217C602.69 205.704 601.912 205.191 601.109 204.662C600.248 204.115 599.387 203.568 598.5 203.004C597.609 202.422 596.718 201.84 595.8 201.24C592.875 199.334 589.938 197.448 587 195.562C584.992 194.261 582.985 192.958 580.979 191.654C576.928 189.022 572.874 186.397 568.817 183.776C563.547 180.365 558.313 176.902 553.094 173.414C551.615 172.429 550.136 171.444 548.656 170.459C546.591 169.083 544.527 167.706 542.469 166.32C540.599 165.063 538.723 163.817 536.844 162.574C535.804 161.879 534.765 161.184 533.694 160.468C529.848 158.372 526.811 158.922 522.743 159.942ZM308 338C302.922 408.16 302.922 408.16 331 467C338.51 474.344 347.525 478.74 357 483C357.79 483.362 358.581 483.724 359.395 484.098C376.887 490.963 397.251 488.253 414 481C433.519 472.176 446.421 456.634 454 437C463.81 407.389 458 362.196 458 338C408.5 338 308 338 308 338ZM159.125 375.125C157.435 379.443 157.341 383.427 158 388C160.163 392.406 162.397 395.199 167 397C172.043 397.684 175.831 397.574 180.438 395.312C183.797 392.281 185.694 390.259 186.317 385.668C186.582 379.95 185.969 376.397 182 372C178.163 368.614 174.366 368.487 169.438 368.648C164.775 369.321 162.148 371.699 159.125 375.125ZM581.125 375.125C579.435 379.443 579.341 383.427 580 388C582.163 392.406 584.397 395.199 589 397C594.043 397.684 597.831 397.574 602.438 395.312C605.797 392.281 607.694 390.259 608.317 385.668C608.582 379.95 607.969 376.397 604 372C600.163 368.614 596.366 368.487 591.438 368.648C586.775 369.321 584.148 371.699 581.125 375.125ZM281.018 462.621C280.288 462.793 279.558 462.965 278.806 463.143C271.18 464.945 263.558 466.762 255.936 468.581C252.313 469.444 248.689 470.304 245.064 471.159C240.698 472.189 236.333 473.227 231.97 474.271C230.302 474.668 228.634 475.063 226.965 475.455C224.636 476.002 222.309 476.56 219.983 477.121C219.287 477.282 218.59 477.443 217.873 477.609C216.232 478.01 214.613 478.497 213 479C212.67 479.66 212.34 480.32 212 481C212.767 481.505 212.767 481.505 213.55 482.02C218.97 485.59 224.39 489.16 229.81 492.731C231.821 494.056 233.832 495.38 235.843 496.705C236.812 497.342 237.78 497.98 238.778 498.637C239.744 499.273 240.71 499.909 241.705 500.564C244.606 502.477 247.504 504.394 250.402 506.311C254.039 508.715 257.69 511.095 261.357 513.455C262.187 513.995 263.017 514.534 263.872 515.09C265.413 516.092 266.96 517.086 268.513 518.07C273.271 521.18 276.297 523.768 277.557 529.56C277.909 539.354 274.011 546.37 269.5 554.75C268.775 556.139 268.053 557.53 267.332 558.922C265.58 562.295 263.799 565.651 262 569C265.637 570.277 268.176 569.72 271.879 568.828C273.065 568.548 274.25 568.268 275.472 567.979C276.751 567.667 278.03 567.356 279.348 567.035C280.683 566.719 282.019 566.403 283.355 566.089C289.016 564.755 294.673 563.397 300.328 562.036C303.793 561.204 307.26 560.383 310.729 559.569C312.674 559.109 314.615 558.635 316.556 558.16C333.796 554.112 333.796 554.112 341.063 557.375C347.609 563.225 353.65 569.469 359.356 576.137C361.543 578.615 363.893 580.904 366.25 583.219C368.697 585.709 370.945 588.356 373.223 591C376.011 594.138 378.992 597.074 382 600C385.912 598.406 388.372 595.861 391.313 592.875C391.798 592.383 392.284 591.891 392.784 591.384C396.122 587.975 399.294 584.455 402.391 580.828C404.565 578.359 406.906 576.083 409.254 573.781C411.076 571.923 412.755 569.985 414.438 568C424.478 556.346 424.478 556.346 430.1 555.793C438.172 555.642 445.464 557.187 453.278 559.098C454.62 559.415 455.962 559.731 457.305 560.046C460.805 560.87 464.303 561.707 467.8 562.548C473.419 563.9 479.04 565.241 484.666 566.564C486.622 567.028 488.575 567.503 490.529 567.979C491.714 568.259 492.9 568.539 494.121 568.828C495.683 569.205 495.683 569.205 497.277 569.589C499.935 569.99 501.492 569.881 504 569C503.319 567.731 503.319 567.731 502.623 566.436C500.921 563.251 499.252 560.049 497.592 556.842C496.873 555.464 496.145 554.091 495.409 552.723C490.946 544.415 486.883 536.737 489 527C491.248 521.308 496.346 518.757 501.285 515.59C502.68 514.678 502.68 514.678 504.103 513.747C507.083 511.8 510.072 509.869 513.063 507.937C515.017 506.666 516.971 505.393 518.924 504.119C521.813 502.235 524.703 500.353 527.595 498.475C536.448 492.725 545.234 486.879 554 481C553.67 480.34 553.34 479.68 553 479C550.68 478.257 548.414 477.639 546.05 477.073C545.323 476.892 544.596 476.712 543.847 476.525C541.434 475.929 539.018 475.344 536.602 474.762C534.929 474.354 533.256 473.946 531.583 473.538C528.072 472.684 524.56 471.837 521.046 470.994C516.537 469.911 512.033 468.804 507.531 467.691C504.077 466.841 500.619 466.006 497.16 465.177C495.497 464.775 493.836 464.368 492.177 463.955C489.858 463.38 487.535 462.827 485.21 462.28C484.176 462.016 484.176 462.016 483.122 461.747C481.006 461.222 481.006 461.222 478 461C475.145 462.964 473.756 465.916 472 468.875C457.823 491.356 437.293 506.181 412 514C410.905 514.34 409.809 514.681 408.68 515.031C381.982 521.721 353.357 516.944 329.625 503.562C324.435 500.391 319.649 496.917 315 493C313.799 492.018 313.799 492.018 312.574 491.016C303.209 483.034 296.07 473.442 290.059 462.73C289.709 462.159 289.36 461.588 289 461C286.359 461 283.591 462.01 281.018 462.621Z" fill="#469274"/>
<path d="M359 398C363.645 400.2 365.669 402.509 368 407C368.527 409.151 368.983 411.32 369.375 413.5C370.541 418.953 371.466 421.745 376 425C379.689 426.845 383.964 426.35 388 426C392.325 424.251 393.878 422.068 396 418C396.527 415.849 396.983 413.68 397.375 411.5C398.936 404.229 400.892 402.072 407 398C412.554 397.311 417.471 397.276 422.562 399.687C426.129 403.071 427.813 405.593 428.468 410.531C428.584 425.18 424.589 435.922 414.418 446.672C403.887 456.613 391.935 458.57 378.14 458.34C365.803 457.795 356.108 451.6 347.812 442.812C341.115 434.581 337.831 425.579 337.687 415.125C337.658 414.43 337.629 413.735 337.599 413.02C337.536 407.82 338.636 404.931 342 401C347.222 396.944 352.653 397.226 359 398Z" fill="#469274"/>
</g>
<defs>
<clipPath id="clip0_179_872">
<rect width="512" height="512" fill="white" transform="translate(127 127)"/>
</clipPath>
</defs>
</svg>
